<?xml version="1.0" encoding="utf-8"?>
<!-- Generator: Adobe Illustrator 26.3.1, SVG Export Plug-In . SVG Version: 6.00 Build 0)  -->
<svg version="1.1" id="Layer_1" xmlns="http://www.w3.org/2000/svg" xmlns:xlink="http://www.w3.org/1999/xlink" x="0px" y="0px"
	 viewBox="0 0 1000 1000" style="enable-background:new 0 0 1000 1000;" xml:space="preserve">
<g>
	<path d="M794.7,130.7H386c-43.9,0-79.5,35.7-79.5,79.5v67.3c0,19.6,15.9,35.5,35.5,35.5c19.6,0,35.5-15.9,35.5-35.5v-67.3
		c0-4.7,3.8-8.4,8.4-8.4h408.7c4.7,0,8.4,3.8,8.4,8.4v579.6c0,4.7-3.8,8.5-8.4,8.5H386c-4.7,0-8.4-3.8-8.4-8.5v-67.3
		c0-19.6-15.9-35.5-35.5-35.5c-19.6,0-35.5,15.9-35.5,35.5v67.3c0,43.9,35.7,79.5,79.5,79.5h408.7c43.9,0,79.5-35.7,79.5-79.5V210.2
		C874.2,166.3,838.5,130.7,794.7,130.7z"/>
	<path d="M486.1,636.8c-13.9,13.9-13.9,36.4,0,50.3c6.9,6.9,16,10.4,25.1,10.4s18.2-3.5,25.1-10.4l161.9-161.9
		c13.9-13.9,13.9-36.4,0-50.3L536.3,313c-13.9-13.9-36.4-13.9-50.3,0s-13.9,36.4,0,50.3l101.2,101.2h-426
		c-19.6,0-35.5,15.9-35.5,35.5s15.9,35.5,35.5,35.5h426L486.1,636.8z"/>
</g>
</svg>
