<svg id="Line" xmlns="http://www.w3.org/2000/svg" viewBox="0 0 64 64"><title>1</title><path d="M55.3999,18.75H49.2002v-6.5a4.60516,4.60516,0,0,0-4.6001-4.6001h-36A4.60516,4.60516,0,0,0,4,12.25v32a.99991.99991,0,0,0,1.707.707L10.814,39.8501H44.6001A4.60516,4.60516,0,0,0,49.2002,35.25c-.07016-.8881.377-2.54341-1-2.60008a1,1,0,0,0-1,1V35.25a2.60319,2.60319,0,0,1-2.6001,2.6001H10.3999a1.00014,1.00014,0,0,0-.707.293L6,41.83594V12.25A2.60318,2.60318,0,0,1,8.6001,9.6499h36A2.60319,2.60319,0,0,1,47.2002,12.25V28.6499a1,1,0,0,0,2,0V20.75h6.1997A2.60317,2.60317,0,0,1,58,23.3501V52.936l-3.69287-3.69288a1.00013,1.00013,0,0,0-.707-.293H19.3999a2.60319,2.60319,0,0,1-2.6001-2.6001v-2.5a1.00011,1.00011,0,0,0-2,0v2.5a4.60516,4.60516,0,0,0,4.6001,4.6001H53.186L58.293,56.05713A.99992.99992,0,0,0,60,55.3501v-32A4.60516,4.60516,0,0,0,55.3999,18.75Z"/><path d="M13.2002,17.2002h20a1.0002,1.0002,0,0,0-.00007-2H13.2002A1.0002,1.0002,0,0,0,13.2002,17.2002Z"/><path d="M41,23.75a1,1,0,0,0-1-1H13.2002a1,1,0,0,0,0,2H40A1,1,0,0,0,41,23.75Z"/><path d="M13.2002,30.2998a1.0002,1.0002,0,0,0,.00006,2H33.2002a1.00019,1.00019,0,0,0-.00007-2Z"/></svg>