<?xml version="1.0" encoding="utf-8"?>
<!-- Generator: Adobe Illustrator 19.2.1, SVG Export Plug-In . SVG Version: 6.00 Build 0)  -->
<svg version="1.1" id="Line" xmlns="http://www.w3.org/2000/svg" xmlns:xlink="http://www.w3.org/1999/xlink" x="0px" y="0px"
	 viewBox="0 0 32 32" enable-background="new 0 0 32 32" xml:space="preserve">
<path id="XMLID_153_" d="M28,16h-6V6c0-1.103-0.897-2-2-2H4C2.897,4,2,4.897,2,6v17c0,2.757,2.243,5,5,5h18c2.757,0,5-2.243,5-5v-5
	C30,16.897,29.103,16,28,16z M7,26c-1.654,0-3-1.346-3-3V6h16v11v6c0,1.083,0.417,2.222,1.002,3H7z M28,23c0,1.654-1.346,3-3,3
	s-3-1.346-3-3v-5h6V23z"/>
<path id="XMLID_165_" d="M18,22c0,0.552-0.448,1-1,1H7c-0.552,0-1-0.448-1-1s0.448-1,1-1h10C17.552,21,18,21.448,18,22z"/>
<path id="XMLID_163_" d="M18,18c0,0.552-0.448,1-1,1H7c-0.552,0-1-0.448-1-1s0.448-1,1-1h10C17.552,17,18,17.448,18,18z"/>
<path id="XMLID_161_" d="M18,14c0,0.552-0.448,1-1,1h-5c-0.552,0-1-0.448-1-1s0.448-1,1-1h5C17.552,13,18,13.448,18,14z"/>
<path id="XMLID_159_" d="M18,10c0,0.552-0.448,1-1,1h-5c-0.552,0-1-0.448-1-1s0.448-1,1-1h5C17.552,9,18,9.448,18,10z"/>
</svg>
