<?xml version="1.0" encoding="UTF-8" standalone="no"?><!DOCTYPE svg PUBLIC "-//W3C//DTD SVG 1.1//EN" "http://www.w3.org/Graphics/SVG/1.1/DTD/svg11.dtd"><svg width="100%" height="100%" viewBox="0 0 67 67" version="1.1" xmlns="http://www.w3.org/2000/svg" xmlns:xlink="http://www.w3.org/1999/xlink" xml:space="preserve" xmlns:serif="http://www.serif.com/" style="fill-rule:evenodd;clip-rule:evenodd;stroke-linejoin:round;stroke-miterlimit:2;"><g id="Layer1"><path d="M19.804,41.134l-0,3.123c-0,0.576 -0.466,1.042 -1.042,1.042l-14.595,-0c-0.28,-0 -0.548,-0.113 -0.744,-0.313c-0.196,-0.199 -0.303,-0.47 -0.298,-0.749c0,-0 0.076,-3.798 0.08,-4.037l0.001,-0.011c0.006,-2.911 2.367,-5.268 5.279,-5.268l6.04,0c1.323,0 2.533,0.487 3.459,1.292c-0.173,-0.932 -0.264,-1.892 -0.264,-2.874c0,-5.799 3.167,-10.864 7.865,-13.558c0.019,-0.075 0.047,-0.149 0.084,-0.22c0.878,-1.696 2.649,-2.855 4.691,-2.855l6.04,-0c2.16,-0 4.018,1.298 4.835,3.157c4.619,2.714 7.723,7.735 7.723,13.476c0,1.007 -0.095,1.993 -0.278,2.947c0.937,-0.848 2.179,-1.365 3.542,-1.365l6.041,0c2.915,0 5.279,2.364 5.279,5.279l-0,0.004l-0,4.053c-0,0.576 -0.467,1.042 -1.042,1.042l-14.596,-0c-0.279,-0 -0.548,-0.113 -0.743,-0.313c-0.196,-0.199 -0.304,-0.47 -0.298,-0.749c-0,-0 0.04,-2.006 0.063,-3.194c-1.71,3.008 -4.39,5.394 -7.614,6.73c-0.805,2.522 -3.168,4.349 -5.955,4.349c-2.78,0 -5.139,-1.819 -5.949,-4.331c-3.21,-1.32 -5.884,-3.679 -7.604,-6.657Zm19.782,4.215c4.33,-2.259 7.289,-6.792 7.289,-12.01c0,-7.47 -6.065,-13.536 -13.536,-13.536c-7.47,0 -13.536,6.066 -13.536,13.536c0,5.232 2.975,9.775 7.325,12.028c0.103,-1.29 0.599,-2.47 1.368,-3.421c-3.091,-1.709 -5.186,-5.003 -5.186,-8.783c-0,-5.535 4.494,-10.029 10.029,-10.029c5.536,-0 10.03,4.494 10.03,10.029c-0,3.77 -2.084,7.056 -5.161,8.769c0.771,0.949 1.271,2.127 1.378,3.417Zm-10.25,1.618c0.481,1.769 2.1,3.072 4.021,3.072c1.905,0 3.514,-1.281 4.009,-3.028c-0.051,-0.036 -0.101,-0.077 -0.147,-0.123c-2.311,-2.311 -6.034,-2.054 -7.74,-0.059c-0.044,0.051 -0.092,0.097 -0.143,0.138Zm0.878,-6.496c0.923,-0.54 1.998,-0.849 3.143,-0.849c1.14,0 2.208,0.306 3.129,0.84c2.822,-1.22 4.799,-4.03 4.799,-7.299c0,-4.385 -3.56,-7.946 -7.946,-7.946c-4.385,0 -7.946,3.561 -7.946,7.946c-0,3.277 1.987,6.092 4.821,7.308Zm-12.493,-0.267l-0,-0.004c-0,-1.765 -1.431,-3.195 -3.196,-3.195l-6.04,-0c-1.765,-0 -3.196,1.43 -3.196,3.195c-0,0.009 -0,0.017 -0,0.025l12.432,-0.021Zm43.737,0l0,-0.004c0,-1.765 -1.43,-3.195 -3.195,-3.195l-6.041,-0c-1.765,-0 -3.195,1.43 -3.195,3.195c-0,0.009 -0,0.017 -0.001,0.025l12.432,-0.021Zm-49.976,-18.824c3.45,-0 6.25,2.8 6.25,6.25c0,3.449 -2.8,6.25 -6.25,6.25c-3.449,-0 -6.25,-2.801 -6.25,-6.25c0,-3.45 2.801,-6.25 6.25,-6.25Zm-3.902,7.713c0.593,1.578 2.117,2.703 3.902,2.703c1.986,0 3.649,-1.392 4.066,-3.252c-2.306,-0 -3.814,-0.628 -4.703,-1.193c-1.028,1.208 -2.369,1.611 -3.265,1.742Zm47.64,-7.713c3.45,-0 6.25,2.8 6.25,6.25c0,3.449 -2.8,6.25 -6.25,6.25c-3.449,-0 -6.25,-2.801 -6.25,-6.25c0,-3.45 2.801,-6.25 6.25,-6.25Zm-3.902,7.713c0.593,1.578 2.117,2.703 3.902,2.703c1.986,0 3.649,-1.392 4.066,-3.252c-2.306,-0 -3.814,-0.628 -4.704,-1.193c-1.027,1.208 -2.369,1.611 -3.264,1.742Zm-26.238,29.35l0.001,-0.012c0.006,-2.91 2.367,-5.267 5.279,-5.267l6.04,0c2.915,0 5.279,2.364 5.279,5.279l-0,0.004l-0,4.053c-0,0.575 -0.466,1.042 -1.042,1.042l-14.595,-0c-0.28,-0 -0.548,-0.113 -0.744,-0.313c-0.196,-0.2 -0.303,-0.47 -0.298,-0.75c0,0 0.076,-3.797 0.08,-4.036Zm8.277,-55.279c3.45,0 6.25,2.801 6.25,6.25c0,3.45 -2.8,6.25 -6.25,6.25c-3.449,0 -6.25,-2.8 -6.25,-6.25c0,-3.449 2.801,-6.25 6.25,-6.25Zm-4.021,7.344c0.481,1.77 2.1,3.073 4.021,3.073c1.905,-0 3.514,-1.282 4.009,-3.029c-0.051,-0.035 -0.101,-0.076 -0.147,-0.122c-2.311,-2.311 -6.034,-2.054 -7.74,-0.06c-0.044,0.052 -0.092,0.098 -0.143,0.138Z" style="fill:#212121;"/></g></svg>