<?xml version="1.0" encoding="UTF-8"?><svg width="512" height="512" version="1.1" viewBox="0 0 512 512" xmlns="http://www.w3.org/2000/svg" xmlns:xlink="http://www.w3.org/1999/xlink"><!--Generated by IJSVG (https://github.com/iconjar/IJSVG)--><path d="M73.294,29.75h-12.419v-7.875c0,-5.997 -4.879,-10.875 -10.875,-10.875c-5.997,0 -10.875,4.878 -10.875,10.875v7.875h-12.419l-3.291,59.25h53.171l-3.292,-59.25Zm-31.169,-7.875c0,-4.342 3.533,-7.875 7.875,-7.875c4.343,0 7.875,3.533 7.875,7.875v7.875h-15.75v-7.875Zm-12.581,10.875h9.581v4.75c0,0.829 0.671,1.5 1.5,1.5c0.829,0 1.5,-0.671 1.5,-1.5v-4.75h15.75v4.75c0,0.829 0.672,1.5 1.5,1.5c0.828,0 1.5,-0.671 1.5,-1.5v-4.75h9.581l2.958,53.25h-46.829l2.959,-53.25Z" transform="scale(5.12)" fill="#000"></path></svg>