<svg id="Line" xmlns="http://www.w3.org/2000/svg" viewBox="0 0 64 64"><title>1</title><path d="M17.95557,39.74316a1.721,1.721,0,0,0,1.79248-.30565l2.75976-2.75978a1.00009,1.00009,0,0,0-1.41411-1.414l-2.5644,2.5644C9.80035,35.02326.94965,44.74427,4.96838,53.04605a1.00746,1.00746,0,0,0,1.56971.202l1.50439-1.50194C9.4043,50.38867,10.853,48.94434,11.999,47.77734c.21824-.17919.08757-.17438.29345-.127,1.34327.39688,2.30837.577,3.23243.81446.32319.98436.4136,1.86377.86186,3.30567.044.11838.01065.09309-.08207.20217-1.6537,1.60534-3.72925,3.698-5.53272,5.51268a1.00064,1.00064,0,0,0,.31592,1.625,10.99367,10.99367,0,0,0,11.80176-2.07422A11.16513,11.16513,0,0,0,26.207,45.48926l2.791-2.791a1.00009,1.00009,0,0,0-1.41411-1.414L24.53369,44.334a1.69185,1.69185,0,0,0-.28709,1.60645c2.27554,6.47575-4.3247,13.56808-10.91913,11.81039,1.48747-1.495,3.06462-3.077,4.37956-4.35238a2.03493,2.03493,0,0,0,.59326-2.209c-.2915-.99316-.45654-1.71972-.57715-2.25-.43164-1.90136-.73095-2.19726-2.66894-2.64355-.52783-.12207-1.23731-.28516-2.1875-.56055a2.09482,2.09482,0,0,0-2.28906.63477c-1.147,1.168-2.59034,2.60742-3.94727,3.96l-.38623.38574C4.49077,44.25707,11.60123,37.57856,17.95557,39.74316Z"/><path d="M45.87305,24.228a1.69288,1.69288,0,0,0-1.53907.30571L41.28369,27.584a1.0001,1.0001,0,0,0,1.41411,1.414l2.79634-2.79633c8.78225,2.7918,17.386-6.655,13.61606-15.11389a1.00635,1.00635,0,0,0-1.62437-.31577l-.61718.61325c-1.65283,1.64307-3.47168,3.45118-4.88476,4.9087-.14215.12329-.07953.13384-.23145.0874-1.38491-.41154-2.30085-.57843-3.24463-.814a5.876,5.876,0,0,1-.26367-.9629c-.1231-.54482-.332-1.42157-.625-2.4248a1.1002,1.1002,0,0,1,.15234-.17481c1.59923-1.57126,3.74466-3.73327,5.47657-5.4668a.99931.99931,0,0,0,.28466-.83447c-.06394-.56605-.57347-.83293-1.07325-1.00633C44.22254,1.38462,35.11774,10.03875,37.82978,18.528l-2.56611,2.56577a1.00009,1.00009,0,0,0,1.41411,1.414L39.438,19.74805a1.7017,1.7017,0,0,0,.31983-1.74756c-2.18-6.40041,4.46105-13.49535,10.95671-11.75473l-.37859.37924c-1.354,1.35791-2.7959,2.8042-3.97217,3.959a2.08446,2.08446,0,0,0-.6333,2.26514c.85184,2.50363.29626,4.45043,3.209,4.874.53028.12067,1.25684.28571,2.231.57184a2.05917,2.05917,0,0,0,2.23828-.59765c1.2666-1.30616,2.84766-2.88233,4.34326-4.36963C59.49469,19.95812,52.41966,26.53049,45.87305,24.228Z"/><path d="M58.85693,52.502a3.59423,3.59423,0,0,0-2.67675-2.67675l-1.30176-.29981a1.57026,1.57026,0,0,1-.75733-.41992L37.55823,32.5426c.771-.80154,2.06532-1.76172,1.70246-2.964-.49628-2.26888-5.70795-1.28537-5.36657-3.55083A7.27156,7.27156,0,0,0,31.228,20.45313c-4.05225-3.94922-8.11768-8.03858-12.04883-11.99366L15.93311,5.19629a2.89549,2.89549,0,0,0-4.36232-.34468C9.32324,7.08691,7.08691,9.32324,4.8999,11.5249a2.889,2.889,0,0,0,.29644,4.4082c5.05032,5.02805,10.24524,10.155,15.2568,15.29493a7.27864,7.27864,0,0,0,5.60545,2.66455c1.36679-.25112,1.70094,2.18144,2.14252,3.877a1.91826,1.91826,0,0,0,1.78961,1.54289c1.05958.03115,1.81687-1.08146,2.55183-1.75386L49.10547,54.12109a1.56518,1.56518,0,0,1,.41943.75684l.30078,1.30273A3.59437,3.59437,0,0,0,52.502,58.85742l4.69922,1.084a2.28475,2.28475,0,0,0,2.74024-2.74024Zm-28.75-15.34375c-1.72355-8.508-4.11112-2.77575-8.22122-7.32561C16.85429,24.67087,11.63126,19.51937,6.56689,14.4751c-.47119-.35474-.84252-1.03224-.29736-1.49414,2.23242-2.24463,4.4668-4.479,6.75733-6.75977.4247-.48207,1.125-.10208,1.44822.34571,5.04632,5.06748,10.19376,10.285,15.35744,15.31885,1.2959,1.26171,2.09277,2.38866,2.0625,4.07519-.1416,2.88574,2.55176,3.50586,4.3335,3.9165.32421.07471.63964.14649.92968.229C34.82275,32.478,32.45313,34.84766,30.10693,37.1582ZM57.9165,57.917a.27919.27919,0,0,1-.26562.0752l-4.69873-1.084c-1.15134-.21037-1.26352-1.5635-1.47847-2.48051A3.575,3.575,0,0,0,50.52,52.707L33.96631,36.1543l2.1875-2.1875L52.707,50.51953a3.57267,3.57267,0,0,0,1.72217.95508c.92139.21792,2.261.31862,2.47847,1.47662l1.085,4.69916A.27933.27933,0,0,1,57.9165,57.917Z"/></svg>