<?xml version="1.0" encoding="utf-8"?>
<!-- Generator: Adobe Illustrator 24.0.0, SVG Export Plug-In . SVG Version: 6.00 Build 0)  -->
<svg version="1.1" id="icons" xmlns="http://www.w3.org/2000/svg" xmlns:xlink="http://www.w3.org/1999/xlink" x="0px" y="0px"
	 viewBox="0 0 340 340" style="enable-background:new 0 0 340 340;" xml:space="preserve">
<g>
	<path d="M65,301.8c6.6,6.8,15.4,10.5,24.9,10.5h15.4V330c0,1.4,0.7,2.6,1.8,3.4c1.2,0.7,2.6,0.8,3.8,0.3l19.9-9.2l19.9,9.2
		c0.5,0.2,1.1,0.4,1.7,0.4c0.8,0,1.5-0.2,2.2-0.6c1.2-0.7,1.8-2,1.8-3.4v-48.4h101c0.2,2.7,0.6,5.4,1.6,8.3h-90.4c-2.2,0-4,1.8-4,4
		s1.8,4,4,4h96.6c0,0,0,0,0,0c0,0,0,0,0,0h7.9c2,0,3.6,1.6,3.6,3.6v2.9H168.6c-2.2,0-4,1.8-4,4s1.8,4,4,4h112.2c2.2,0,4-1.8,4-4
		v-6.9c0-6.4-5.2-11.6-11.6-11.6h-5.5c-4.2-9-1.4-18.7,0.2-22.9h5.3c6.4,0,11.6-5.2,11.6-11.6v-8.5V10c0-2.2-1.8-4-4-4H90.6
		c-0.1,0-0.1,0-0.2,0c-0.1,0-0.1,0-0.2,0c-7.8,0.8-14.9,3.8-20.9,9c-8.9,7.7-14.1,19.2-14.1,31.4v230.2c0,0,0,0,0,0
		C55,286.2,58.5,295.1,65,301.8z M148.5,323.7l-15.9-7.4c-0.5-0.2-1.1-0.4-1.7-0.4s-1.1,0.1-1.7,0.4l-15.9,7.4v-29.9c0,0,0,0,0,0
		s0,0,0,0v-12.2h35.2V323.7z M257.9,273.6H152.5h-43.2H94.2c-2.2,0-4,1.8-4,4s1.8,4,4,4h11.1v8.3H89.9c-3.2,0-6.1-1.3-8.3-3.5
		c-2.2-2.3-3.3-5.3-3.1-8.4c0.3-6,5.6-10.9,11.9-10.9h169C258.8,268.8,258.3,271.1,257.9,273.6z M276.8,255.3c0,2-1.6,3.6-3.6,3.6
		H90.4c-10.6,0-19.4,8.1-19.8,18.5c-0.3,5.4,1.6,10.5,5.3,14.3c3.7,3.9,8.7,6,14.1,6h15.4v6.5H89.9c-7.3,0-14.1-2.9-19.2-8.1
		c-5.1-5.2-7.8-12.1-7.6-19.4c0.4-14.3,12.7-26,27.4-26h186.2V255.3z M74.5,21.1c3.6-3.1,7.7-5.3,12.1-6.4v212.9c0,2.2,1.8,4,4,4
		s4-1.8,4-4V14h182.2v228.8H90.6c-10.9,0-20.8,5-27.4,12.9V46.5C63.2,36.6,67.3,27.3,74.5,21.1z"/>
</g>
</svg>
